<svg width="39" height="34" viewBox="0 0 39 34" fill="none" xmlns="http://www.w3.org/2000/svg">
<path d="M34.5 32.5H4.5C3.70435 32.5 2.94129 32.1839 2.37868 31.6213C1.81607 31.0587 1.5 30.2956 1.5 29.5V8.5C1.5 7.70435 1.81607 6.94129 2.37868 6.37868C2.94129 5.81607 3.70435 5.5 4.5 5.5H10.5L13.5 1H25.5L28.5 5.5H34.5C35.2956 5.5 36.0587 5.81607 36.6213 6.37868C37.1839 6.94129 37.5 7.70435 37.5 8.5V29.5C37.5 30.2956 37.1839 31.0587 36.6213 31.6213C36.0587 32.1839 35.2956 32.5 34.5 32.5Z" stroke="#06B6D4" stroke-width="2" stroke-linecap="round" stroke-linejoin="round"/>
<path d="M19.5 25C23.2279 25 26.25 21.9779 26.25 18.25C26.25 14.5221 23.2279 11.5 19.5 11.5C15.7721 11.5 12.75 14.5221 12.75 18.25C12.75 21.9779 15.7721 25 19.5 25Z" stroke="#06B6D4" stroke-width="2" stroke-linecap="round" stroke-linejoin="round"/>
</svg>