<svg width="25" height="25" viewBox="0 0 30 30" fill="none" xmlns="http://www.w3.org/2000/svg">
  <path d="M14 0.637909C12.249 0.637909 10.5152 0.982786 8.89755 1.65285C7.27988 2.32291 5.81002 3.30504 4.57191 4.54315C2.07142 7.04364 0.666666 10.435 0.666666 13.9712C0.666666 19.8646 4.49333 24.8646 9.78667 26.6379C10.4533 26.7446 10.6667 26.3312 10.6667 25.9712C10.6667 25.6646 10.6667 24.8246 10.6667 23.7179C6.97333 24.5179 6.18667 21.9312 6.18667 21.9312C5.57333 20.3846 4.70667 19.9712 4.70667 19.9712C3.49333 19.1446 4.8 19.1712 4.8 19.1712C6.13333 19.2646 6.84 20.5446 6.84 20.5446C8 22.5712 9.96 21.9712 10.72 21.6512C10.84 20.7846 11.1867 20.1979 11.56 19.8646C8.6 19.5312 5.49333 18.3846 5.49333 13.3046C5.49333 11.8246 6 10.6379 6.86667 9.69124C6.73333 9.35791 6.26667 7.97124 7 6.17124C7 6.17124 8.12 5.81124 10.6667 7.53124C11.72 7.23791 12.8667 7.09124 14 7.09124C15.1333 7.09124 16.28 7.23791 17.3333 7.53124C19.88 5.81124 21 6.17124 21 6.17124C21.7333 7.97124 21.2667 9.35791 21.1333 9.69124C22 10.6379 22.5067 11.8246 22.5067 13.3046C22.5067 18.3979 19.3867 19.5179 16.4133 19.8512C16.8933 20.2646 17.3333 21.0779 17.3333 22.3179C17.3333 24.1046 17.3333 25.5446 17.3333 25.9712C17.3333 26.3312 17.5467 26.7579 18.2267 26.6379C23.52 24.8512 27.3333 19.8646 27.3333 13.9712C27.3333 12.2203 26.9885 10.4865 26.3184 8.8688C25.6483 7.25112 24.6662 5.78127 23.4281 4.54315C22.19 3.30504 20.7201 2.32291 19.1024 1.65285C17.4848 0.982786 15.751 0.637909 14 0.637909Z" fill="#06B6D4"/>
</svg>