<svg width="25" height="25" viewBox="0 0 25 25" fill="none" xmlns="http://www.w3.org/2000/svg">
<path d="M20.625 7.6C20.625 7.6 12.075 9.7375 16.175 14.45C17.3875 15.8375 15.8625 17.0875 15.8625 17.0875C15.8625 17.0875 18.925 15.525 17.5 13.525C16.175 11.6875 15.175 10.775 20.625 7.6ZM15.0375 9.1C20.1 5.1 17.5 2.5 17.5 2.5C18.55 6.625 13.8 7.875 12.0875 10.45C10.9125 12.2 12.6625 14.0875 15 16.25C14.1125 14.125 10.975 12.3 15.0375 9.1ZM11.7125 21.8375C7.86252 22.9125 14.0625 25.125 18.95 23.0375C18.475 22.85 18.0125 22.625 17.575 22.3625C15.875 22.75 14.125 22.825 12.4 22.5875C10.7625 22.3875 11.7125 21.8375 11.7125 21.8375ZM18.3625 19.7375C16.175 20.2125 13.9125 20.325 11.6875 20.0625C10.05 19.9 11.125 19.1 11.125 19.1C6.87502 20.5125 13.475 22.1 19.375 20.375C19.0125 20.2375 18.6625 20 18.3625 19.7375ZM22.6375 23.8625C22.6375 23.8625 23.35 24.45 21.875 24.9C19.025 25.75 10.0875 26.0125 7.61252 24.9375C6.72502 24.55 8.40002 24.0125 8.92502 23.9C9.21252 23.825 9.50002 23.8 9.78752 23.8C8.80002 23.125 3.37502 25.175 7.05002 25.75C17.0125 27.375 25.225 25 22.6375 23.8625ZM19.2125 17.7875C19.575 17.55 19.9625 17.35 20.3625 17.175C20.3625 17.175 18.475 17.5 16.5875 17.675C14.5875 17.875 12.575 17.9 10.575 17.75C7.63752 17.3625 12.1875 16.25 12.1875 16.25C10.8125 16.25 9.46252 16.575 8.23752 17.1875C5.67502 18.4375 14.6125 19 19.2125 17.7875ZM20.3375 20.8125C20.3125 20.8625 20.2875 20.9 20.2375 20.9375C26.5 19.3 24.2 15.1375 21.2 16.175C21.0375 16.25 20.9 16.35 20.8125 16.4875C20.9875 16.425 21.1625 16.375 21.35 16.3375C22.85 16.0375 25 18.375 20.3375 20.8125ZM20.5 26.575C16.7375 27.225 12.8875 27.275 9.10002 26.75C9.10002 26.75 9.67502 27.225 12.6125 27.4125C17.1125 27.7 24.025 27.25 24.1875 25.125C24.225 25.1375 23.9 25.9375 20.5 26.575Z" fill="#06B6D4"/>
</svg>
