<svg width="24" height="25" viewBox="0 0 24 25" fill="none" xmlns="http://www.w3.org/2000/svg">
  <path d="M0 0.471252H24V24.4713H0V0.471252ZM6.30667 20.5246C6.84 21.6579 7.89333 22.5913 9.69333 22.5913C11.6933 22.5913 13.0667 21.5246 13.0667 19.1913V11.4846H10.8V19.1379C10.8 20.2846 10.3333 20.5779 9.6 20.5779C8.82667 20.5779 8.50667 20.0446 8.14667 19.4179L6.30667 20.5246ZM14.28 20.2846C14.9467 21.5913 16.2933 22.5913 18.4 22.5913C20.5333 22.5913 22.1333 21.4846 22.1333 19.4446C22.1333 17.5646 21.0533 16.7246 19.1333 15.8979L18.5733 15.6579C17.6 15.2446 17.1867 14.9646 17.1867 14.2979C17.1867 13.7513 17.6 13.3246 18.2667 13.3246C18.9067 13.3246 19.3333 13.6046 19.72 14.2979L21.4667 13.1379C20.7333 11.8579 19.6933 11.3646 18.2667 11.3646C16.2533 11.3646 14.96 12.6446 14.96 14.3379C14.96 16.1779 16.04 17.0446 17.6667 17.7379L18.2267 17.9779C19.2667 18.4313 19.88 18.7113 19.88 19.4846C19.88 20.1246 19.28 20.5913 18.3467 20.5913C17.24 20.5913 16.6 20.0179 16.12 19.2179L14.28 20.2846Z" fill="#06B6D4"/>
</svg>