<svg width="24" height="25" viewBox="0 0 24 25" fill="none" xmlns="http://www.w3.org/2000/svg">
  <path d="M21.3333 0.971252C22.0406 0.971252 22.7189 1.2522 23.219 1.7523C23.719 2.2524 24 2.93068 24 3.63792V22.3046C24 23.0118 23.719 23.6901 23.219 24.1902C22.7189 24.6903 22.0406 24.9713 21.3333 24.9713H2.66667C1.95942 24.9713 1.28115 24.6903 0.781048 24.1902C0.280951 23.6901 0 23.0118 0 22.3046V3.63792C0 2.93068 0.280951 2.2524 0.781048 1.7523C1.28115 1.2522 1.95942 0.971252 2.66667 0.971252H21.3333ZM20.6667 21.6379V14.5713C20.6667 13.4184 20.2087 12.3129 19.3936 11.4977C18.5784 10.6825 17.4728 10.2246 16.32 10.2246C15.1867 10.2246 13.8667 10.9179 13.2267 11.9579V10.4779H9.50667V21.6379H13.2267V15.0646C13.2267 14.0379 14.0533 13.1979 15.08 13.1979C15.5751 13.1979 16.0499 13.3946 16.3999 13.7447C16.75 14.0947 16.9467 14.5695 16.9467 15.0646V21.6379H20.6667ZM5.17333 8.38459C5.76742 8.38459 6.33717 8.14859 6.75725 7.72851C7.17733 7.30842 7.41333 6.73867 7.41333 6.14459C7.41333 4.90459 6.41333 3.89125 5.17333 3.89125C4.57571 3.89125 4.00257 4.12866 3.57999 4.55124C3.1574 4.97382 2.92 5.54697 2.92 6.14459C2.92 7.38459 3.93333 8.38459 5.17333 8.38459ZM7.02667 21.6379V10.4779H3.33333V21.6379H7.02667Z" fill="#06B6D4"/>
</svg>