<svg width="25" height="25" viewBox="0 0 25 25" fill="none" xmlns="http://www.w3.org/2000/svg">
<path d="M14.5 2.23541C14.1738 2.23541 13.8354 2.32 13.5575 2.47708L4.5675 7.67291C3.9875 8.01125 3.625 8.63958 3.625 9.31625V19.6837C3.625 20.3604 3.9875 20.9887 4.5675 21.3271L6.92375 22.6804C8.07167 23.2362 8.45833 23.2483 8.99 23.2483C10.6817 23.2483 11.6604 22.2212 11.6604 20.4329V10.1983C11.6604 10.0533 11.5396 9.9325 11.3946 9.9325H10.2708C10.1138 9.9325 9.99292 10.0533 9.99292 10.1983V20.4329C9.99292 21.2304 9.17125 22.0158 7.85417 21.3512L5.37708 19.9375C5.2925 19.8771 5.24417 19.7804 5.24417 19.6837V9.31625C5.24417 9.2075 5.2925 9.11083 5.37708 9.0625L14.3671 3.87875C14.4396 3.83041 14.5604 3.83041 14.6329 3.87875L23.6229 9.0625C23.7075 9.11083 23.7558 9.2075 23.7558 9.31625V19.6837C23.7558 19.7804 23.7075 19.8771 23.6229 19.9375L14.6329 25.1212C14.5604 25.1696 14.4396 25.1696 14.355 25.1212L12.0833 23.7437C11.9867 23.7075 11.89 23.6954 11.8296 23.7317C11.1892 24.0942 11.0683 24.1667 10.4763 24.3479C10.3313 24.3962 10.1017 24.4808 10.5608 24.7346L13.5575 26.5108C13.8475 26.68 14.1617 26.7646 14.5 26.7646C14.8383 26.7646 15.1525 26.68 15.4425 26.5108L24.4325 21.3271C25.0125 20.9887 25.375 20.3604 25.375 19.6837V9.31625C25.375 8.63958 25.0125 8.01125 24.4325 7.67291L15.4425 2.47708C15.1646 2.32 14.8383 2.23541 14.5 2.23541ZM16.9167 9.66666C14.355 9.66666 12.8204 10.7421 12.8204 12.5546C12.8204 14.5 14.3429 15.0679 16.8079 15.3096C19.7442 15.5996 19.9738 16.0346 19.9738 16.6146C19.9738 17.6175 19.1642 18.0404 17.2792 18.0404C14.8867 18.0404 14.3792 17.4483 14.1979 16.2642C14.1738 16.1433 14.065 16.0467 13.9321 16.0467H12.7721C12.6271 16.0467 12.5183 16.1554 12.5183 16.3125C12.5183 17.8108 13.34 19.6233 17.2792 19.6233C20.1188 19.6233 21.75 18.4996 21.75 16.5421C21.75 14.5967 20.445 14.0892 17.6779 13.7146C14.8867 13.3521 14.6088 13.1587 14.6088 12.5062C14.6088 11.9625 14.8504 11.2375 16.9167 11.2375C18.7292 11.2375 19.4421 11.6362 19.72 12.8808C19.7442 13.0017 19.8529 13.0862 19.9738 13.0862H21.1458C21.2063 13.0862 21.2788 13.0621 21.3271 13.0017C21.3754 12.9533 21.4117 12.8808 21.3875 12.8083C21.2183 10.6575 19.7925 9.66666 16.9167 9.66666Z" fill="#67E8F9"/>
</svg>
