<svg width="25" height="25" viewBox="0 0 25 25" fill="none" xmlns="http://www.w3.org/2000/svg">
<path d="M15 22.6C6.7125 22.6 0 19.2 0 15C0 10.8 6.7125 7.4 15 7.4C23.2875 7.4 30 10.8 30 15C30 19.2 23.2875 22.6 15 22.6ZM8.5125 12.6625C9.1875 12.6625 9.65 12.7875 9.875 13.05C10.1 13.3 10.15 13.75 10.0375 14.3375C9.9125 15 9.675 15.425 9.3125 15.7C8.9625 15.975 8.425 16.1125 7.7 16.1125H6.6125L7.275 12.6625H8.5125ZM4.1375 19.6H5.9375L6.3625 17.4125H7.9C8.575 17.4125 9.125 17.3375 9.5625 17.2C10 17.05 10.4 16.8125 10.7625 16.475C11.0625 16.2 11.3 15.9 11.4875 15.5625C11.675 15.2375 11.8125 14.8625 11.875 14.4625C12.075 13.4875 11.9375 12.725 11.4625 12.1875C10.975 11.6375 10.225 11.375 9.1875 11.375H5.7375L4.1375 19.6ZM13.2 9.1875L11.6 17.4125H13.375L14.3 12.7H15.725C16.175 12.7 16.475 12.775 16.6125 12.925C16.75 13.075 16.775 13.35 16.7 13.75L15.9875 17.4125H17.8L18.5375 13.575C18.7 12.8 18.575 12.2375 18.2 11.875C17.825 11.5375 17.1375 11.375 16.1375 11.375H14.55L15 9.1875H13.2ZM22.5 12.6625C23.1875 12.6625 23.6375 12.7875 23.8625 13.05C24.0875 13.3 24.1375 13.75 24.025 14.3375C23.9 15 23.6625 15.425 23.3125 15.7C22.95 15.975 22.4125 16.1125 21.6875 16.1125H20.625L21.25 12.6625H22.5ZM18.125 19.6H19.925L20.35 17.4125H21.875C22.5625 17.4125 23.125 17.3375 23.5625 17.2C24 17.05 24.375 16.8125 24.75 16.475C25.05 16.2 25.3 15.9 25.475 15.5625C25.6625 15.2375 25.8 14.8625 25.875 14.4625C26.0625 13.4875 25.925 12.725 25.45 12.1875C25 11.6375 24.2125 11.375 23.175 11.375H19.7375L18.125 19.6Z" fill="#67E8F9"/>
</svg>
