<svg width="30" height="27" viewBox="0 0 30 27" fill="none" xmlns="http://www.w3.org/2000/svg">
  <path d="M15 10.9513C16.3733 10.9513 17.4933 12.0713 17.4933 13.4713C17.4933 14.8046 16.3733 15.9379 15 15.9379C13.6267 15.9379 12.5067 14.8046 12.5067 13.4713C12.5067 12.0713 13.6267 10.9513 15 10.9513ZM8.82666 24.1379C9.66666 24.6446 11.5067 23.8713 13.6267 21.8713C12.9333 21.0846 12.2533 20.2313 11.6133 19.3379C10.52 19.2313 9.44 19.0713 8.41333 18.8579C7.73333 21.7113 7.98666 23.6713 8.82666 24.1379ZM9.77333 16.4846L9.38666 15.8046C9.24 16.1913 9.09333 16.5779 9 16.9513C9.36 17.0313 9.76 17.0979 10.1733 17.1646C10.04 16.9379 9.90666 16.7113 9.77333 16.4846ZM18.4933 15.4713L19.5733 13.4713L18.4933 11.4713C18.0933 10.7646 17.6667 10.1379 17.28 9.51126C16.56 9.47126 15.8 9.47126 15 9.47126C14.2 9.47126 13.44 9.47126 12.72 9.51126C12.3333 10.1379 11.9067 10.7646 11.5067 11.4713L10.4267 13.4713L11.5067 15.4713C11.9067 16.1779 12.3333 16.8046 12.72 17.4313C13.44 17.4713 14.2 17.4713 15 17.4713C15.8 17.4713 16.56 17.4713 17.28 17.4313C17.6667 16.8046 18.0933 16.1779 18.4933 15.4713ZM15 6.51126C14.7467 6.80459 14.48 7.11126 14.2133 7.47126C14.48 7.47126 14.7333 7.47126 15 7.47126C15.2667 7.47126 15.52 7.47126 15.7867 7.47126C15.52 7.11126 15.2533 6.80459 15 6.51126ZM15 20.4313C15.2533 20.1379 15.52 19.8313 15.7867 19.4713C15.52 19.4713 15.2667 19.4713 15 19.4713C14.7333 19.4713 14.48 19.4713 14.2133 19.4713C14.48 19.8313 14.7467 20.1379 15 20.4313ZM21.16 2.80459C20.3333 2.29792 18.4933 3.07125 16.3733 5.07125C17.0667 5.85792 17.7467 6.71126 18.3867 7.60459C19.48 7.71126 20.56 7.87126 21.5867 8.08459C22.2667 5.23126 22.0133 3.27126 21.16 2.80459ZM20.2267 10.4579L20.6133 11.1379C20.76 10.7513 20.9067 10.3646 21 9.99126C20.64 9.91126 20.24 9.84459 19.8267 9.77792C19.96 10.0046 20.0933 10.2313 20.2267 10.4579ZM22.16 1.05792C24.12 2.17792 24.3333 5.12459 23.5067 8.56459C26.8933 9.56459 29.3333 11.2179 29.3333 13.4713C29.3333 15.7246 26.8933 17.3779 23.5067 18.3779C24.3333 21.8179 24.12 24.7646 22.16 25.8846C20.2133 27.0046 17.56 25.7246 15 23.2846C12.44 25.7246 9.78666 27.0046 7.82666 25.8846C5.88 24.7646 5.66666 21.8179 6.49333 18.3779C3.10666 17.3779 0.666664 15.7246 0.666664 13.4713C0.666664 11.2179 3.10666 9.56459 6.49333 8.56459C5.66666 5.12459 5.88 2.17792 7.82666 1.05792C9.78666 -0.0620784 12.44 1.21792 15 3.65792C17.56 1.21792 20.2133 -0.0620784 22.16 1.05792ZM21.7733 13.4713C22.2267 14.4713 22.6267 15.4713 22.96 16.4846C25.76 15.6446 27.3333 14.4446 27.3333 13.4713C27.3333 12.4979 25.76 11.2979 22.96 10.4579C22.6267 11.4713 22.2267 12.4713 21.7733 13.4713ZM8.22666 13.4713C7.77333 12.4713 7.37333 11.4713 7.04 10.4579C4.24 11.2979 2.66666 12.4979 2.66666 13.4713C2.66666 14.4446 4.24 15.6446 7.04 16.4846C7.37333 15.4713 7.77333 14.4713 8.22666 13.4713ZM20.2267 16.4846C20.0933 16.7113 19.96 16.9379 19.8267 17.1646C20.24 17.0979 20.64 17.0313 21 16.9513C20.9067 16.5779 20.76 16.1913 20.6133 15.8046L20.2267 16.4846ZM16.3733 21.8713C18.4933 23.8713 20.3333 24.6446 21.16 24.1379C22.0133 23.6713 22.2667 21.7113 21.5867 18.8579C20.56 19.0713 19.48 19.2313 18.3867 19.3379C17.7467 20.2313 17.0667 21.0846 16.3733 21.8713ZM9.77333 10.4579C9.90666 10.2313 10.04 10.0046 10.1733 9.77792C9.76 9.84459 9.36 9.91126 9 9.99126C9.09333 10.3646 9.24 10.7513 9.38666 11.1379L9.77333 10.4579ZM13.6267 5.07125C11.5067 3.07125 9.66666 2.29792 8.82666 2.80459C7.98666 3.27126 7.73333 5.23126 8.41333 8.08459C9.44 7.87126 10.52 7.71126 11.6133 7.60459C12.2533 6.71126 12.9333 5.85792 13.6267 5.07125Z" fill="#06B6D4"/>
</svg>