<svg width="25" height="25" viewBox="0 0 25 25" fill="none" xmlns="http://www.w3.org/2000/svg">
<path d="M24.75 20.875C24.75 20.875 27 20.625 27 17.875C27 15.125 24.375 14.75 24.375 14.75H19.625V23.75H22V21.625L24.125 23.75H27.5L24.75 20.875ZM23.75 19.125H21.875V17.125H23.75C23.75 17.125 24.25 17.375 24.25 18.125C24.375 18.875 23.75 19.125 23.75 19.125ZM26.625 10.25V10.5C16.5 7.625 12.5 16.5 13.25 23.375C13.25 23.375 6.125 23.375 5.375 23.375C6.25 16.625 14.75 3.25 26.625 10.25ZM25.625 8.625C24.75 8.25 23.875 7.875 23 7.625L23.125 6L25.75 7L25.625 8.625ZM23.125 10.875C24 10.875 24.875 11 25.75 11.25L25.625 12.75L23.375 12.5L23.125 10.875ZM17.375 7.25L16.875 5.75L19.5 5.5L20 7.125C19.75 7.125 17.625 7.25 17.375 7.25ZM19 11.875C19.5 11.625 20.375 11.25 21.5 11L22 12.5L19.75 13.375L19 11.875ZM14.75 8.125C14 8.5 13.25 8.875 12.5 9.375L11.5 7.75L13.75 6.5L14.75 8.125ZM17.875 12.625L18.875 14.125L17.5 15.75L16.125 14.5C16.5 13.75 17.125 13.125 17.875 12.625ZM14.5 18.75C14.625 17.75 14.875 16.875 15.25 15.875L16.75 17.125L16.375 19.5L14.5 18.75ZM9.875 11.625C9.25 12.25 8.625 13 8.125 13.625L6.5 12.25L8.375 10.25L9.875 11.625ZM6 17.125C5.5 18.125 5.125 19.125 4.75 20L2.5 19.125L3.625 16.25L6 17.125ZM14.375 20.375L16.625 21.125L17 23.625L14.5 23C14.5 22.75 14.375 21.875 14.375 20.375Z" fill="#67E8F9"/>
</svg>