<svg width="26" height="26" viewBox="0 0 30 30" fill="none" xmlns="http://www.w3.org/2000/svg">
  <path d="M14 0.137924C15.751 0.137924 17.4848 0.482801 19.1024 1.15286C20.7201 1.82293 22.19 2.80505 23.4281 4.04317C24.6662 5.28128 25.6483 6.75114 26.3184 8.36881C26.9885 9.98649 27.3333 11.7203 27.3333 13.4713C27.3333 17.0075 25.9286 20.3989 23.4281 22.8993C20.9276 25.3998 17.5362 26.8046 14 26.8046C12.249 26.8046 10.5152 26.4597 8.89755 25.7897C7.27988 25.1196 5.81002 24.1375 4.57191 22.8993C2.07142 20.3989 0.666664 17.0075 0.666664 13.4713C0.666664 9.93504 2.07142 6.54365 4.57191 4.04317C7.07239 1.54268 10.4638 0.137924 14 0.137924ZM11.3333 17.9113C11.5467 18.6313 11.52 19.2979 11.3333 19.9113C11.3333 19.9779 11.28 20.0446 11.2533 20.1379C11.2267 20.1379 11.2 20.2313 11.16 20.2979C11.0133 20.6179 10.8 20.9246 10.5467 21.1913C9.77333 22.0446 8.66666 22.3646 8.22666 22.0979C7.72 21.8046 8 20.6046 8.88 19.6579C9.84 18.6446 11.2267 17.9779 11.2267 17.9779L11.3333 17.9113ZM22.36 5.84459C21.76 3.47126 17.8267 2.69792 14.12 4.01792C11.9067 4.80459 9.50666 6.03126 7.78666 7.64459C5.74666 9.56459 5.41333 11.2313 5.54666 11.9246C6 14.3779 9.38666 15.9913 10.7733 17.1779V17.1913C10.3733 17.3913 7.38666 18.8979 6.66666 20.4446C5.94666 22.0713 6.8 23.2446 7.33333 23.4046C9.12 23.8846 10.92 23.0179 11.88 21.5646C12.8133 20.1779 12.7467 18.3779 12.3333 17.4713C12.8933 17.3379 13.5467 17.2713 14.3733 17.3646C16.72 17.6446 17.1733 19.0979 17.08 19.7113C17 20.3246 16.5067 20.6579 16.3467 20.7646C16.1867 20.8579 16.1333 20.8979 16.1467 20.9779C16.16 21.0846 16.24 21.0846 16.3733 21.0579C16.5733 21.0179 17.6133 20.5646 17.6533 19.4313C17.7067 17.9913 16.3333 16.3913 13.9067 16.4313C12.9067 16.4579 12.28 16.5513 11.8267 16.7246L11.72 16.6046C10.2133 15.0046 7.44 13.8713 7.56 11.7113C7.6 10.9246 7.86666 8.87126 12.8933 6.36459C17 4.31126 20.2933 4.87126 20.8667 6.13792C21.68 7.91126 19.1067 11.2313 14.84 11.7113C13.2133 11.8979 12.3467 11.2579 12.1333 11.0313C11.9067 10.8046 11.88 10.7646 11.8 10.8046C11.6533 10.8979 11.7467 11.1113 11.8 11.2446C11.92 11.5779 12.4533 12.1379 13.3333 12.4579C14.12 12.7113 16.04 12.8579 18.3467 11.9646C20.9333 10.9646 22.96 8.17792 22.36 5.84459Z" fill="#06B6D4"/>
</svg>